<svg width="18" height="16" viewBox="0 0 18 16" fill="none" xmlns="http://www.w3.org/2000/svg">
<path d="M8.99998 3.02102L8.59496 2.46145C8.28323 2.03076 7.93288 1.66629 7.55076 1.37107L7.55074 1.37105C6.79894 0.790122 5.95446 0.5 5.02831 0.5C3.776 0.5 2.63117 0.999098 1.7953 1.90485L8.99998 3.02102ZM8.99998 3.02102L9.40502 2.46147M8.99998 3.02102L9.40502 2.46147M9.40502 2.46147C9.71691 2.03062 10.0672 1.66626 10.4492 1.37102C11.2011 0.790102 12.0456 0.5 12.9717 0.5C14.224 0.5 15.3687 0.999105 16.2046 1.9049C17.0323 2.80196 17.5 4.04063 17.5 5.40459C17.5 6.78192 16.993 8.065 15.83 9.46693L15.83 9.46696C14.7742 10.7399 13.2465 12.0427 11.422 13.596L11.422 13.5961L11.4059 13.6098C10.7906 14.1338 10.0918 14.7289 9.36659 15.3625L9.36633 15.3627C9.26546 15.451 9.13534 15.5 9 15.5C8.86465 15.5 8.73466 15.4511 8.63343 15.3625L8.63309 15.3622C7.9024 14.7239 7.19897 14.1249 6.5805 13.5983L6.57841 13.5965L6.57838 13.5965M9.40502 2.46147L6.57838 13.5965M6.57838 13.5965C4.75366 12.0428 3.22597 10.7399 2.17012 9.46709C1.00713 8.06498 0.5 6.78189 0.5 5.40473C0.5 4.04063 0.967663 2.80196 1.79526 1.9049L6.57838 13.5965Z" stroke="#ADADAD"/>
</svg>
